<?xml version="1.0" encoding="utf-8"?>
<svg width="1440px" height="802px" viewBox="0 0 1440 802" version="1.1" xmlns:xlink="http://www.w3.org/1999/xlink" xmlns="http://www.w3.org/2000/svg">
  <desc>Created with Lunacy</desc>
  <path d="M0 171.864C0 171.864 175.562 -2.73605 365.128 66.3036C554.695 135.343 680.739 16.7752 903.317 1.26625C1125.9 -14.2427 1290.45 117.833 1566.05 117.833C1841.65 117.833 1924.18 639.133 1676.09 616.62C1428 594.107 1303.96 718.178 1146.4 668.149C988.847 618.12 864.303 459.529 738.259 522.566C612.215 585.602 493.468 651.494 315.111 668.149C136.753 684.805 156.055 574.595 78.0274 616.62C1.98244e-13 658.644 0 171.864 0 171.864Z" transform="translate(-170.9856 46.45264)" id="Path-5" fill="#5EAAFF" fill-opacity="0.2" stroke="none" />
  <path d="M0 190.69C0 190.69 93.5328 -53.8389 283.099 15.2007C472.666 84.2404 668.234 177.294 919.823 155.281C1171.41 133.269 1237.93 123.263 1511.53 93.2456C1785.13 63.2283 1917.17 822.664 1669.09 800.152C1594.76 793.406 1533.18 778.354 1479.15 759.231C1352.84 714.528 1267.76 647.584 1157.41 612.544C999.851 562.515 873.807 589.531 747.762 652.567C621.718 715.603 493.468 670.319 315.111 686.975C136.753 703.63 156.055 593.421 78.0274 635.445C1.98244e-13 677.469 0 190.69 0 190.69Z" transform="translate(-212 0.5)" id="Path-5" fill="#FF9DB6" fill-opacity="0.2" stroke="none" />
</svg>