<?xml version="1.0" encoding="utf-8"?>
<svg width="112px" height="118px" viewBox="0 0 112 118" version="1.1" xmlns:xlink="http://www.w3.org/1999/xlink" xmlns="http://www.w3.org/2000/svg">
  <desc>Created with Lunacy</desc>
  <path d="M0 0L35 0L35 35L0 35L0 0Z" transform="translate(25 54)" id="Rectangle" fill="#EA4972" fill-opacity="0.349019617" stroke="none" />
  <path d="M12 24C18.6274 24 24 18.6274 24 12C24 5.37258 18.6274 0 12 0C5.37258 0 0 5.37258 0 12C0 18.6274 5.37258 24 12 24Z" transform="translate(85 3)" id="Oval" fill="#BD10E0" fill-opacity="0.2784314" stroke="none" />
  <path d="M12 24C18.6274 24 24 18.6274 24 12C24 5.37258 18.6274 0 12 0C5.37258 0 0 5.37258 0 12C0 18.6274 5.37258 24 12 24Z" transform="translate(9 93)" id="Oval" fill="#BD10E0" fill-opacity="0.2784314" stroke="none" />
  <g id="performance">
    <path d="M82.1239 97.0579C82.133 88.8163 88.8113 82.1376 97.0533 82.1276C104.813 82.1194 111.287 88.0581 111.945 95.7912C112.604 103.524 107.229 110.472 99.5783 111.776C91.9286 113.08 84.555 108.306 82.6141 100.79L55.9973 100.79C54.9667 100.79 54.1311 99.9548 54.1311 98.9241L54.1311 82.1276L33.6031 82.1276C32.5725 82.1276 31.7369 81.2919 31.7369 80.2613L31.7369 57.8658L16.8075 57.8658L16.8075 82.257C24.6276 83.2421 30.3346 90.1376 29.8416 98.0047C29.3477 105.872 22.8234 112 14.9413 112C7.05924 112 0.534887 105.872 0.0410049 98.0047C-0.452877 90.1376 5.25411 83.2421 13.0751 82.257L13.0751 55.9995C13.0751 54.9689 13.9107 54.1333 14.9413 54.1333L31.7369 54.1333L31.7369 46.6681C31.7379 46.4303 31.7852 46.1942 31.8764 45.9746C31.9092 45.9099 31.9465 45.8471 31.9866 45.7878C32.085 45.5691 32.2409 45.3814 32.4386 45.2447C32.5434 45.1545 32.6591 45.0761 32.7821 45.0132C32.865 44.9731 32.9525 44.9412 33.0409 44.9157C33.1129 44.8838 33.1858 44.8556 33.2614 44.8337C34.7768 44.02 40.605 37.8014 45.2495 32.3894C45.6039 31.9766 46.1215 31.7378 46.6664 31.7378L54.1311 31.7378L54.1311 16.8075L29.7414 16.8075C28.7563 24.629 21.8611 30.3363 13.9945 29.8424C6.12797 29.3494 0 22.8247 0 14.9412C0 7.05872 6.12797 0.534006 13.9945 0.0410072C21.8611 -0.452903 28.7563 5.2544 29.7414 13.0749L55.9973 13.0749C57.0279 13.0749 57.8635 13.9106 57.8635 14.9412L57.8635 31.7378L80.2577 31.7378C81.2883 31.7378 82.1239 32.5735 82.1239 33.6041L82.1239 54.1333L95.1871 54.1333L95.1871 29.743C87.3661 28.758 81.6591 21.8624 82.153 13.9953C82.6469 6.1274 89.1713 0 97.0533 0C104.935 0 111.46 6.1274 111.954 13.9953C112.447 21.8624 106.74 28.758 98.9195 29.743L98.9195 55.9995C98.9195 57.0302 98.0839 57.8658 97.0533 57.8658L82.1239 57.8658L82.1239 67.1973C82.1239 67.693 81.927 68.1669 81.5771 68.5168L68.5139 81.5808C68.1639 81.9307 67.6892 82.1276 67.1944 82.1276L57.8635 82.1276L57.8635 97.0579L82.1239 97.0579ZM14.9413 26.139C8.75684 26.139 3.74421 21.126 3.74421 14.9412C3.74421 8.75733 8.75684 3.74351 14.9413 3.74351C21.1249 3.74351 26.1384 8.75733 26.1384 14.9412C26.132 21.1233 21.1221 26.1335 14.9413 26.139ZM97.0533 3.74351C90.8689 3.74351 85.8562 8.75733 85.8562 14.9412C85.8626 21.1233 90.8716 26.1335 97.0533 26.139C103.237 26.139 108.25 21.126 108.25 14.9412C108.25 8.75733 103.237 3.74351 97.0533 3.74351ZM54.1311 35.4704L47.523 35.4704C43.6803 39.9311 40.933 42.8672 38.9474 44.8018L66.4217 44.8018L75.7526 35.4704L57.8635 35.4704L57.8635 41.0692L54.1311 41.0692L54.1311 35.4704ZM78.3915 54.1333L72.793 54.1333L72.793 57.8658L78.3915 57.8658L78.3915 66.4254L69.0606 75.7569L69.0606 47.4409L78.3915 38.1094L78.3915 54.1333ZM35.4693 48.5344L65.3282 48.5344L65.3282 78.395L35.4693 78.395L35.4693 48.5344ZM14.9413 108.256C21.1249 108.256 26.1384 103.243 26.1384 97.0579C26.132 90.8767 21.1221 85.8665 14.9413 85.8601C8.75684 85.8601 3.74421 90.874 3.74421 97.0579C3.74421 103.243 8.75684 108.256 14.9413 108.256ZM85.8562 97.0579C85.8562 103.243 90.8689 108.256 97.0533 108.256C103.234 108.25 108.244 103.24 108.25 97.0579C108.25 90.874 103.237 85.8601 97.0533 85.8601C90.8689 85.8601 85.8562 90.874 85.8562 97.0579Z" id="Shape" fill="#3F546C" fill-rule="evenodd" stroke="none" />
    <path d="M6.11462 8.18345L2.09631 5.35301L0 8.67355L5.6664 12.6644C6.09618 12.9674 6.62464 13.0707 7.12819 12.9519C7.63175 12.832 8.06798 12.4998 8.3336 12.0321L14 2.05488L10.7628 0L6.11462 8.18345Z" transform="translate(91 90)" id="Path" fill="#3F546C" stroke="none" />
    <path d="M2.09631 5.35301L0 8.67355L5.6664 12.6644C6.09618 12.9674 6.62464 13.0707 7.12819 12.9519C7.63175 12.832 8.06798 12.4998 8.3336 12.0321L14 2.05488L10.7628 0L6.11462 8.18053L2.09631 5.35301Z" transform="translate(9 90)" id="Path" fill="#3F546C" stroke="none" />
    <path d="M7.12819 12.9514C7.63267 12.8316 8.06798 12.4994 8.3336 12.0317L14 2.05481L10.7628 0L6.11462 8.18027L2.09631 5.35283L0 8.67326L5.6664 12.664C6.09618 12.967 6.62464 13.0713 7.12819 12.9514Z" transform="translate(91 7)" id="Path" fill="#3F546C" stroke="none" />
    <path d="M6.11462 8.18345L2.09631 5.35301L0 8.67355L5.6664 12.6644C6.09618 12.9674 6.62464 13.0707 7.12819 12.9519C7.63175 12.832 8.06798 12.4998 8.3336 12.0321L14 2.05488L10.7628 0L6.11462 8.18345Z" transform="translate(9 7)" id="Path" fill="#3F546C" stroke="none" />
    <path d="M20.4286 3.75L18.2296 3.75C17.4452 1.51062 15.3523 0.0100709 13 0L5.57143 0C2.49463 0 0 2.51862 0 5.625C0 8.7323 2.49463 11.25 5.57143 11.25L7.77044 11.25C8.55392 13.4894 10.6468 14.9908 13 15L20.4286 15C23.5054 15 26 12.4823 26 9.375C26 6.26862 23.5054 3.75 20.4286 3.75ZM3.71429 5.625C3.71429 4.58954 4.54583 3.75 5.57143 3.75L13 3.75C10.6468 3.76007 8.55392 5.26062 7.77044 7.5L5.57143 7.5C4.54583 7.5 3.71429 6.66046 3.71429 5.625ZM13 11.25L20.4286 11.25C21.4542 11.25 22.2857 10.4105 22.2857 9.375C22.2857 8.33954 21.4542 7.5 20.4286 7.5L18.2296 7.5C17.4452 9.73938 15.3523 11.2408 13 11.25Z" transform="translate(37 55)" id="Shape" fill="#EA4972" fill-rule="evenodd" stroke="none" />
  </g>
</svg>