<?xml version="1.0" encoding="utf-8"?>
<svg width="130px" height="135px" viewBox="0 0 130 135" version="1.1" xmlns:xlink="http://www.w3.org/1999/xlink" xmlns="http://www.w3.org/2000/svg">
  <desc>Created with Lunacy</desc>
  <path d="M6 0L105 0Q105.154 0 105.306 0.0069945Q105.459 0.013989 105.61 0.0279637Q105.762 0.0419385 105.911 0.0628649Q106.061 0.0837914 106.209 0.111627Q106.356 0.139462 106.502 0.17415Q106.647 0.208838 106.79 0.250307Q106.933 0.291776 107.073 0.339942Q107.213 0.388108 107.35 0.442873Q107.487 0.497638 107.62 0.558889Q107.754 0.620141 107.884 0.687755Q108.014 0.755368 108.139 0.829206Q108.265 0.903043 108.387 0.982954Q108.509 1.06287 108.626 1.14869Q108.743 1.23451 108.856 1.32606Q108.968 1.41762 109.076 1.51473Q109.183 1.61183 109.286 1.71429Q109.388 1.81674 109.485 1.92434Q109.582 2.03193 109.674 2.14445Q109.766 2.25697 109.851 2.37418Q109.937 2.49139 110.017 2.61306Q110.097 2.73472 110.171 2.86059Q110.245 2.98646 110.312 3.11628Q110.38 3.2461 110.441 3.3796Q110.502 3.5131 110.557 3.65001Q110.612 3.78692 110.66 3.92696Q110.708 4.06701 110.75 4.2099Q110.791 4.35279 110.826 4.49823Q110.861 4.64367 110.888 4.79138Q110.916 4.93908 110.937 5.08874Q110.958 5.23839 110.972 5.3897Q110.986 5.54101 110.993 5.69367Q111 5.84632 111 6L111 73Q111 73.1537 110.993 73.3063Q110.986 73.459 110.972 73.6103Q110.958 73.7616 110.937 73.9113Q110.916 74.0609 110.888 74.2086Q110.861 74.3563 110.826 74.5018Q110.791 74.6472 110.75 74.7901Q110.708 74.933 110.66 75.073Q110.612 75.2131 110.557 75.35Q110.502 75.4869 110.441 75.6204Q110.38 75.7539 110.312 75.8837Q110.245 76.0135 110.171 76.1394Q110.097 76.2653 110.017 76.3869Q109.937 76.5086 109.851 76.6258Q109.766 76.743 109.674 76.8556Q109.582 76.9681 109.485 77.0757Q109.388 77.1833 109.286 77.2857Q109.183 77.3882 109.076 77.4853Q108.968 77.5824 108.856 77.6739Q108.743 77.7655 108.626 77.8513Q108.509 77.9371 108.387 78.0171Q108.265 78.097 108.139 78.1708Q108.014 78.2446 107.884 78.3123Q107.754 78.3799 107.62 78.4411Q107.487 78.5024 107.35 78.5571Q107.213 78.6119 107.073 78.6601Q106.933 78.7082 106.79 78.7497Q106.647 78.7912 106.502 78.8258Q106.356 78.8605 106.209 78.8884Q106.061 78.9162 105.911 78.9371Q105.762 78.9581 105.61 78.972Q105.459 78.986 105.306 78.993Q105.154 79 105 79L6 79Q5.84632 79 5.69367 78.993Q5.54101 78.986 5.3897 78.972Q5.23839 78.9581 5.08874 78.9371Q4.93908 78.9162 4.79138 78.8884Q4.64367 78.8605 4.49823 78.8258Q4.35279 78.7912 4.2099 78.7497Q4.06701 78.7082 3.92696 78.6601Q3.78692 78.6119 3.65001 78.5571Q3.5131 78.5024 3.3796 78.4411Q3.2461 78.3799 3.11628 78.3123Q2.98646 78.2446 2.86059 78.1708Q2.73472 78.097 2.61306 78.0171Q2.49139 77.9371 2.37418 77.8513Q2.25697 77.7655 2.14445 77.674Q2.03193 77.5824 1.92434 77.4853Q1.81674 77.3882 1.71429 77.2857Q1.61183 77.1833 1.51473 77.0757Q1.41762 76.9681 1.32606 76.8556Q1.23451 76.743 1.14869 76.6258Q1.06287 76.5086 0.982954 76.3869Q0.903043 76.2653 0.829206 76.1394Q0.755368 76.0135 0.687755 75.8837Q0.620141 75.7539 0.558889 75.6204Q0.497638 75.4869 0.442873 75.35Q0.388108 75.2131 0.339942 75.073Q0.291776 74.933 0.250307 74.7901Q0.208838 74.6472 0.17415 74.5018Q0.139462 74.3563 0.111627 74.2086Q0.0837914 74.0609 0.0628649 73.9113Q0.0419385 73.7616 0.0279637 73.6103Q0.013989 73.459 0.0069945 73.3063Q0 73.1537 0 73L0 6Q0 5.84632 0.0069945 5.69367Q0.013989 5.54101 0.0279637 5.3897Q0.0419385 5.23839 0.0628649 5.08874Q0.0837914 4.93908 0.111627 4.79138Q0.139462 4.64367 0.17415 4.49823Q0.208838 4.35279 0.250307 4.2099Q0.291776 4.06701 0.339942 3.92696Q0.388108 3.78692 0.442873 3.65001Q0.497638 3.5131 0.558889 3.3796Q0.620141 3.2461 0.687755 3.11628Q0.755368 2.98646 0.829206 2.86059Q0.903043 2.73472 0.982954 2.61306Q1.06287 2.49139 1.14869 2.37418Q1.23451 2.25697 1.32606 2.14445Q1.41762 2.03193 1.51473 1.92434Q1.61183 1.81674 1.71429 1.71429Q1.81674 1.61183 1.92434 1.51473Q2.03193 1.41762 2.14445 1.32606Q2.25697 1.23451 2.37418 1.14869Q2.49139 1.06287 2.61306 0.982954Q2.73472 0.903043 2.86059 0.829206Q2.98646 0.755368 3.11628 0.687755Q3.2461 0.620141 3.3796 0.558889Q3.5131 0.497638 3.65001 0.442873Q3.78692 0.388108 3.92696 0.339942Q4.06701 0.291776 4.2099 0.250307Q4.35279 0.208838 4.49823 0.17415Q4.64367 0.139462 4.79138 0.111627Q4.93908 0.0837914 5.08874 0.0628649Q5.23839 0.0419385 5.3897 0.0279637Q5.54101 0.013989 5.69367 0.0069945Q5.84632 0 6 0Z" transform="translate(19 0)" id="Rectangle-Copy" fill="#EA4972" fill-opacity="0.349019617" stroke="none" />
  <g id="shopping" transform="translate(0 11)">
    <path d="M105.519 0L11.4821 0C5.15057 0 0 5.15815 0 11.4997L0 72.7414C0 79.1384 5.19788 84.343 11.5865 84.343L36.5369 84.343L34.2294 94.0212L29.4243 94.0212C24.4317 94.0212 20.3702 98.088 20.3702 103.087L20.3702 106.212C20.3702 107.173 21.1477 107.952 22.1073 107.952L39.1077 107.952L38.349 115.075C38.2963 115.565 38.4552 116.056 38.7846 116.423C39.114 116.79 39.5835 117 40.0762 117L109.527 116.999C110.019 116.999 110.488 116.791 110.818 116.424C111.147 116.059 111.306 115.57 111.255 115.08L109.93 102.316C109.831 101.36 108.98 100.665 108.023 100.765C107.068 100.864 106.375 101.72 106.474 102.675L107.6 113.52L82.085 113.52L78.144 76.5508C78.0503 75.666 77.3049 74.9956 76.4167 74.9956L57.2632 74.9956L58.8129 60.0682L66.1843 60.0682L66.1843 63.8946C66.1843 64.8554 66.9627 65.6348 67.9223 65.6348C68.8819 65.6348 69.6603 64.8554 69.6603 63.8946L69.6603 60.0682L91.2052 60.0682L91.2052 63.8946C91.2052 64.8554 91.9827 65.6348 92.9432 65.6348C93.9028 65.6348 94.6803 64.8554 94.6803 63.8946L94.6803 60.0682L102.052 60.0682L105.862 96.7875C105.955 97.6822 106.71 98.3472 107.589 98.3472C107.649 98.3472 107.709 98.3445 107.77 98.3382C108.725 98.239 109.418 97.3837 109.319 96.4273L108.033 84.0409C113.183 82.8397 117 78.1829 117 72.7414L117 11.4997C117.001 5.15815 111.849 0 105.519 0ZM94.6812 56.5877L94.6812 52.4127C94.6812 44.5464 88.2889 38.1467 80.4328 38.1467C72.5766 38.1467 66.1852 44.5464 66.1852 52.4127L66.1852 56.5877L57.2472 56.5877C56.3572 56.5877 55.611 57.2616 55.519 58.1483L54.305 69.8393L24.3567 69.8393C23.3971 69.8393 22.6196 70.6178 22.6196 71.5786C22.6196 72.5395 23.3971 73.3188 24.3567 73.3188L53.9435 73.3188L53.7694 74.9956L44.1833 74.9956C43.2951 74.9956 42.5498 75.666 42.4551 76.5508L41.9954 80.8635L11.5865 80.8635C7.30899 80.8635 3.79553 77.5287 3.49828 73.3197L18.5644 73.3197C19.524 73.3197 20.3014 72.5412 20.3014 71.5804C20.3014 70.6196 19.524 69.8402 18.5644 69.8402L3.47507 69.8402L3.47507 11.4997C3.47507 7.07715 7.06708 3.47958 11.4821 3.47958L105.519 3.47958C109.934 3.47958 113.526 7.07715 113.526 11.4997L113.526 69.8393L106.561 69.8393L105.347 58.1483C105.255 57.2616 104.509 56.5877 103.619 56.5877L94.6812 56.5877ZM69.6603 52.4127L69.6603 56.5877L91.2052 56.5877L91.2052 52.4127C91.2052 46.4654 86.3724 41.6263 80.4328 41.6263C74.4922 41.6263 69.6603 46.4654 69.6603 52.4127ZM106.921 73.3188L107.671 80.5417C110.88 79.6059 113.259 76.7296 113.503 73.3188L106.921 73.3188ZM78.5894 113.52L42.0097 113.52L45.7454 78.4752L74.8537 78.4752L78.5894 113.52ZM40.1093 84.343L41.6241 84.343L40.5931 94.0212L37.8018 94.0212L40.1093 84.343ZM23.8453 103.087L23.8453 104.472L39.479 104.472L40.2217 97.5007L29.4243 97.5007C26.3473 97.5007 23.8453 100.007 23.8453 103.087Z" id="Shape" fill="#3F546C" fill-rule="evenodd" stroke="none" />
    <path d="M42.9204 10.8645L29.0898 10.8645L29.0898 5.66339C29.0898 2.54091 26.5819 0 23.5 0C20.4181 0 17.9102 2.54091 17.9102 5.66339L17.9102 10.8645L4.07958 10.8645C1.83014 10.8645 0 12.7188 0 14.997L0 17.8264C0 19.6549 1.17966 21.2072 2.80674 21.7514L5.15024 39.8441C5.6047 43.354 8.58197 46 12.0752 46L34.9248 46C38.418 46 41.3944 43.354 41.8498 39.8441L44.1933 21.7514C45.8203 21.2081 47 19.6549 47 17.8264L47 14.997C46.9991 12.7188 45.169 10.8645 42.9204 10.8645ZM23.5 3.46714C22.3045 3.46714 21.3323 4.45216 21.3323 5.66339L21.3323 24.3867C21.3323 25.5979 22.3045 26.5829 23.5 26.5829C24.6946 26.5829 25.6668 25.5979 25.6668 24.3867L25.6668 5.66339C25.6668 4.45216 24.6946 3.46714 23.5 3.46714ZM3.42207 14.997C3.42207 14.63 3.71742 14.3317 4.07958 14.3317L17.9102 14.3317L17.9102 18.4926L4.07958 18.4926C3.71742 18.4926 3.42207 18.1934 3.42207 17.8264L3.42207 14.997ZM42.9204 14.3317C43.2826 14.3317 43.5771 14.63 43.5771 14.997L43.5771 17.8264C43.5771 18.1934 43.2826 18.4926 42.9204 18.4926L29.0898 18.4926L29.0898 14.3317L42.9204 14.3317ZM34.9248 42.5329C36.7057 42.5329 38.2246 41.1827 38.4558 39.3935L40.7149 21.9598L29.0898 21.9598L29.0898 24.3867C29.0898 27.51 26.5828 30.0501 23.5 30.0501C20.4181 30.0501 17.9102 27.51 17.9102 24.3867L17.9102 21.9598L6.28595 21.9598L8.5433 39.3935C8.77536 41.1827 10.2934 42.5329 12.0752 42.5329L34.9248 42.5329Z" transform="translate(12 11)" id="Shape" fill="#EA4972" fill-rule="evenodd" stroke="none" />
    <path d="M3.39621 8.99956L3.39621 1.69767C3.39621 0.759851 2.63636 1.26949e-14 1.69854 1.26949e-14C0.760723 1.26949e-14 0 0.759851 0 1.69767L0 8.99956C0 13.9626 4.03742 18 9.00044 18C13.9626 18 18 13.9626 18 8.99956L18 1.69767C18 0.759851 17.2402 0 16.3023 0C15.3645 0 14.6038 0.759851 14.6038 1.69767L14.6038 8.99956C14.6038 12.0896 12.0904 14.6038 9.00044 14.6038C5.91043 14.6038 3.39621 12.0896 3.39621 8.99956L3.39621 8.99956Z" transform="translate(51 82)" id="Path" fill="#3F546C" stroke="none" />
    <path d="M9.24512 0L1.75488 0C0.785457 0 0 0.895967 0 2.00051C0 3.10506 0.785457 4 1.75488 4L9.24512 4C10.2145 4 11 3.10506 11 2.00051C11 0.895967 10.2145 0 9.24512 0Z" transform="translate(66 17)" id="Path" fill="#3F546C" stroke="none" />
    <path d="M1.76507 4L26.2358 4C27.2104 4 28 3.10506 28 2.00051C28 0.895967 27.2104 0 26.2358 0L1.76507 0C0.789613 0 0 0.895967 0 2.00051C0 3.10506 0.789613 4 1.76507 4L1.76507 4Z" transform="translate(80 17)" id="Path" fill="#3F546C" stroke="none" />
    <path d="M9.24512 0L1.75488 0C0.785457 0 0 0.894939 0 1.99949C0 3.10403 0.785457 4 1.75488 4L9.24512 4C10.2145 4 11 3.10403 11 1.99949C11 0.894939 10.2145 0 9.24512 0Z" transform="translate(66 26)" id="Path" fill="#3F546C" stroke="none" />
    <path d="M28 1.99949C28 0.894939 27.2104 0 26.2358 0L1.76507 0C0.789613 0 0 0.894939 0 1.99949C0 3.10403 0.789613 4 1.76507 4L26.2358 4C27.2104 4 28 3.10403 28 1.99949Z" transform="translate(80 26)" id="Path" fill="#3F546C" stroke="none" />
  </g>
  <path d="M3.5 0L33.5 0L37.5 35L0 35L3.5 0Z" transform="translate(29 99)" id="Path-3" fill="#9013FE" fill-opacity="0.160784319" stroke="none" />
</svg>