<?xml version="1.0" encoding="utf-8"?>
<svg width="102px" height="114px" viewBox="0 0 102 114" version="1.1" xmlns:xlink="http://www.w3.org/1999/xlink" xmlns="http://www.w3.org/2000/svg">
  <desc>Created with Lunacy</desc>
  <path d="M3 0L87 0Q87.1538 0 87.3052 0.0139819Q87.4565 0.0279637 87.6043 0.0558134Q87.7521 0.0836631 87.8951 0.125154Q88.038 0.166644 88.175 0.221437Q88.312 0.276229 88.4419 0.343877Q88.5718 0.411525 88.6935 0.491477Q88.8152 0.571429 88.9278 0.663032Q89.0404 0.754635 89.1429 0.857143Q89.2454 0.959651 89.337 1.07223Q89.4286 1.1848 89.5085 1.30653Q89.5885 1.42826 89.6561 1.55814Q89.7238 1.68802 89.7786 1.825Q89.8334 1.96199 89.8749 2.10495Q89.9164 2.24791 89.9442 2.39569Q89.9721 2.54347 89.986 2.69485Q90 2.84624 90 3L90 20Q90 20.1538 89.986 20.3051Q89.9721 20.4565 89.9442 20.6043Q89.9164 20.7521 89.8749 20.8951Q89.8334 21.038 89.7786 21.175Q89.7238 21.312 89.6561 21.4419Q89.5885 21.5717 89.5085 21.6935Q89.4286 21.8152 89.337 21.9278Q89.2454 22.0404 89.1429 22.1429Q89.0404 22.2454 88.9278 22.337Q88.8152 22.4286 88.6935 22.5085Q88.5718 22.5885 88.4419 22.6561Q88.312 22.7238 88.175 22.7786Q88.038 22.8334 87.8951 22.8748Q87.7521 22.9163 87.6043 22.9442Q87.4565 22.972 87.3052 22.986Q87.1538 23 87 23L3 23Q2.84624 23 2.69485 22.986Q2.54347 22.972 2.39569 22.9442Q2.24791 22.9163 2.10495 22.8748Q1.96199 22.8334 1.825 22.7786Q1.68802 22.7238 1.55814 22.6561Q1.42826 22.5885 1.30653 22.5085Q1.1848 22.4286 1.07223 22.337Q0.959651 22.2454 0.857143 22.1429Q0.754635 22.0404 0.663032 21.9278Q0.571429 21.8152 0.491477 21.6935Q0.411525 21.5717 0.343877 21.4419Q0.276229 21.312 0.221437 21.175Q0.166644 21.038 0.125154 20.8951Q0.0836631 20.7521 0.0558134 20.6043Q0.0279637 20.4565 0.0139819 20.3051Q0 20.1538 0 20L0 3Q0 2.84624 0.0139819 2.69485Q0.0279637 2.54347 0.0558134 2.39569Q0.0836631 2.24791 0.125154 2.10495Q0.166644 1.96199 0.221437 1.825Q0.276229 1.68802 0.343877 1.55814Q0.411525 1.42826 0.491477 1.30653Q0.571429 1.1848 0.663032 1.07223Q0.754635 0.959651 0.857143 0.857143Q0.959651 0.754635 1.07223 0.663032Q1.1848 0.571429 1.30653 0.491477Q1.42826 0.411525 1.55814 0.343877Q1.68802 0.276229 1.825 0.221437Q1.96199 0.166644 2.10495 0.125154Q2.24791 0.0836631 2.39569 0.0558134Q2.54347 0.0279637 2.69485 0.0139819Q2.84624 0 3 0Z" transform="translate(0 60)" id="Rectangle-2" fill="#EA4972" fill-opacity="0.298039228" stroke="none" />
  <path d="M3 0L87 0Q87.1538 0 87.3052 0.0139819Q87.4565 0.0279637 87.6043 0.0558134Q87.7521 0.0836631 87.8951 0.125154Q88.038 0.166644 88.175 0.221437Q88.312 0.276229 88.4419 0.343877Q88.5718 0.411525 88.6935 0.491477Q88.8152 0.571429 88.9278 0.663032Q89.0404 0.754635 89.1429 0.857143Q89.2454 0.959651 89.337 1.07223Q89.4286 1.1848 89.5085 1.30653Q89.5885 1.42826 89.6561 1.55814Q89.7238 1.68802 89.7786 1.825Q89.8334 1.96199 89.8749 2.10495Q89.9164 2.24791 89.9442 2.39569Q89.9721 2.54347 89.986 2.69485Q90 2.84624 90 3L90 20Q90 20.1538 89.986 20.3051Q89.9721 20.4565 89.9442 20.6043Q89.9164 20.7521 89.8749 20.8951Q89.8334 21.038 89.7786 21.175Q89.7238 21.312 89.6561 21.4419Q89.5885 21.5717 89.5085 21.6935Q89.4286 21.8152 89.337 21.9278Q89.2454 22.0404 89.1429 22.1429Q89.0404 22.2454 88.9278 22.337Q88.8152 22.4286 88.6935 22.5085Q88.5718 22.5885 88.4419 22.6561Q88.312 22.7238 88.175 22.7786Q88.038 22.8334 87.8951 22.8748Q87.7521 22.9163 87.6043 22.9442Q87.4565 22.972 87.3052 22.986Q87.1538 23 87 23L3 23Q2.84624 23 2.69485 22.986Q2.54347 22.972 2.39569 22.9442Q2.24791 22.9163 2.10495 22.8748Q1.96199 22.8334 1.825 22.7786Q1.68802 22.7238 1.55814 22.6561Q1.42826 22.5885 1.30653 22.5085Q1.1848 22.4286 1.07223 22.337Q0.959651 22.2454 0.857143 22.1429Q0.754635 22.0404 0.663032 21.9278Q0.571429 21.8152 0.491477 21.6935Q0.411525 21.5717 0.343877 21.4419Q0.276229 21.312 0.221437 21.175Q0.166644 21.038 0.125154 20.8951Q0.0836631 20.7521 0.0558134 20.6043Q0.0279637 20.4565 0.0139819 20.3051Q0 20.1538 0 20L0 3Q0 2.84624 0.0139819 2.69485Q0.0279637 2.54347 0.0558134 2.39569Q0.0836631 2.24791 0.125154 2.10495Q0.166644 1.96199 0.221437 1.825Q0.276229 1.68802 0.343877 1.55814Q0.411525 1.42826 0.491477 1.30653Q0.571429 1.1848 0.663032 1.07223Q0.754635 0.959651 0.857143 0.857143Q0.959651 0.754635 1.07223 0.663032Q1.1848 0.571429 1.30653 0.491477Q1.42826 0.411525 1.55814 0.343877Q1.68802 0.276229 1.825 0.221437Q1.96199 0.166644 2.10495 0.125154Q2.24791 0.0836631 2.39569 0.0558134Q2.54347 0.0279637 2.69485 0.0139819Q2.84624 0 3 0Z" transform="translate(10 32)" id="Rectangle-Copy-2" fill="#BD10E0" fill-opacity="0.298039228" stroke="none" />
  <path d="M3 0L87 0Q87.1538 0 87.3052 0.0139819Q87.4565 0.0279637 87.6043 0.0558134Q87.7521 0.0836631 87.8951 0.125154Q88.038 0.166644 88.175 0.221437Q88.312 0.276229 88.4419 0.343877Q88.5718 0.411525 88.6935 0.491477Q88.8152 0.571429 88.9278 0.663032Q89.0404 0.754635 89.1429 0.857143Q89.2454 0.959651 89.337 1.07223Q89.4286 1.1848 89.5085 1.30653Q89.5885 1.42826 89.6561 1.55814Q89.7238 1.68802 89.7786 1.825Q89.8334 1.96199 89.8749 2.10495Q89.9164 2.24791 89.9442 2.39569Q89.9721 2.54347 89.986 2.69485Q90 2.84624 90 3L90 20Q90 20.1538 89.986 20.3051Q89.9721 20.4565 89.9442 20.6043Q89.9164 20.7521 89.8749 20.8951Q89.8334 21.038 89.7786 21.175Q89.7238 21.312 89.6561 21.4419Q89.5885 21.5717 89.5085 21.6935Q89.4286 21.8152 89.337 21.9278Q89.2454 22.0404 89.1429 22.1429Q89.0404 22.2454 88.9278 22.337Q88.8152 22.4286 88.6935 22.5085Q88.5718 22.5885 88.4419 22.6561Q88.312 22.7238 88.175 22.7786Q88.038 22.8334 87.8951 22.8748Q87.7521 22.9163 87.6043 22.9442Q87.4565 22.972 87.3052 22.986Q87.1538 23 87 23L3 23Q2.84624 23 2.69485 22.986Q2.54347 22.972 2.39569 22.9442Q2.24791 22.9163 2.10495 22.8748Q1.96199 22.8334 1.825 22.7786Q1.68802 22.7238 1.55814 22.6561Q1.42826 22.5885 1.30653 22.5085Q1.1848 22.4286 1.07223 22.337Q0.959651 22.2454 0.857143 22.1429Q0.754635 22.0404 0.663032 21.9278Q0.571429 21.8152 0.491477 21.6935Q0.411525 21.5717 0.343877 21.4419Q0.276229 21.312 0.221437 21.175Q0.166644 21.038 0.125154 20.8951Q0.0836631 20.7521 0.0558134 20.6043Q0.0279637 20.4565 0.0139819 20.3051Q0 20.1538 0 20L0 3Q0 2.84624 0.0139819 2.69485Q0.0279637 2.54347 0.0558134 2.39569Q0.0836631 2.24791 0.125154 2.10495Q0.166644 1.96199 0.221437 1.825Q0.276229 1.68802 0.343877 1.55814Q0.411525 1.42826 0.491477 1.30653Q0.571429 1.1848 0.663032 1.07223Q0.754635 0.959651 0.857143 0.857143Q0.959651 0.754635 1.07223 0.663032Q1.1848 0.571429 1.30653 0.491477Q1.42826 0.411525 1.55814 0.343877Q1.68802 0.276229 1.825 0.221437Q1.96199 0.166644 2.10495 0.125154Q2.24791 0.0836631 2.39569 0.0558134Q2.54347 0.0279637 2.69485 0.0139819Q2.84624 0 3 0Z" transform="translate(10 1)" id="Rectangle-Copy-3" fill="#9013FE" fill-opacity="0.2784314" stroke="none" />
  <g id="server" transform="translate(8 0)">
    <path d="M45 4.30957L45 8.69043C45 11.0672 43.1296 13 40.8295 13L4.17045 13C1.87042 13 0 11.0672 0 8.69043L0 4.30957C0 1.93371 1.87042 0 4.17045 0L40.8295 0C43.1296 0 45 1.93371 45 4.30957ZM3.35313 4.30957L3.35313 8.69043C3.35313 9.15604 3.71987 9.53502 4.17045 9.53502L23.1925 9.53502L23.1925 3.46498L4.17045 3.46498C3.71987 3.46498 3.35313 3.84396 3.35313 4.30957ZM32.4197 9.53502L26.5456 9.53502L26.5456 3.46498L32.4197 3.46498L32.4197 9.53502ZM41.6469 8.69043L41.6469 4.30957C41.6469 3.84396 41.2801 3.46498 40.8296 3.46498L35.7728 3.46498L35.7728 9.53502L40.8296 9.53502C41.2801 9.53502 41.6469 9.15604 41.6469 8.69043Z" transform="translate(40 69)" id="Shape" fill="#EA4972" fill-rule="evenodd" stroke="none" />
    <path d="M0 1.45052L0 1.54948C0 2.35029 0.671875 3 1.5 3C2.32891 3 3 2.35029 3 1.54948L3 1.45052C3 0.64971 2.32891 0 1.5 0C0.671875 0 0 0.64971 0 1.45052Z" transform="translate(34 74)" id="Path" fill="#3F546C" stroke="none" />
    <path d="M45 8.69043C45 11.0672 43.1296 13 40.8295 13L4.17045 13C1.87042 13 0 11.0672 0 8.69043L0 4.30957C0 1.93371 1.87042 0 4.17045 0L40.8295 0C43.1296 0 45 1.93371 45 4.30957L45 8.69043ZM3.35313 4.30957L3.35313 8.69043C3.35313 9.15604 3.71987 9.53502 4.17045 9.53502L23.1925 9.53502L23.1925 3.46498L4.17045 3.46498C3.71987 3.46498 3.35313 3.84396 3.35313 4.30957ZM26.5456 3.46498L26.5456 9.53502L32.4197 9.53502L32.4197 3.46498L26.5456 3.46498ZM41.6469 4.30957L41.6469 8.69043C41.6469 9.15604 41.2801 9.53502 40.8296 9.53502L35.7728 9.53502L35.7728 3.46498L40.8296 3.46498C41.2801 3.46498 41.6469 3.84396 41.6469 4.30957Z" transform="translate(40 38)" id="Shape" fill="#3F546C" fill-rule="evenodd" stroke="none" />
    <path d="M3 1.54948L3 1.45052C3 0.64971 2.32891 0 1.5 0C0.671875 0 0 0.64971 0 1.45052L0 1.54948C0 2.35029 0.671875 3 1.5 3C2.32891 3 3 2.35029 3 1.54948Z" transform="translate(34 43)" id="Path" fill="#3F546C" stroke="none" />
    <path d="M94 22.5352C94 24.8253 92.1444 26.6892 89.8626 26.6892L48.6633 26.6892L48.6633 31.0492L89.8626 31.0492C92.1444 31.0492 94 32.9131 94 35.2032L94 53.5845C94 55.8754 92.1444 57.7384 89.8626 57.7384L48.6633 57.7384L48.6633 62.0985L89.8626 62.0985C92.1444 62.0985 94 63.9624 94 66.2524L94 84.6337C94 86.9247 92.1444 88.7877 89.8626 88.7877L79.0385 88.7877C78.1202 88.7877 77.3752 88.0397 77.3752 87.1177C77.3752 86.1958 78.1202 85.4478 79.0385 85.4478L89.8626 85.4478C90.3096 85.4478 90.6735 85.0825 90.6735 84.6337L90.6735 66.2524C90.6735 65.8036 90.3096 65.4383 89.8626 65.4383L29.0568 65.4383L29.0568 68.2398C29.0568 69.1617 28.3118 69.9097 27.3935 69.9097C26.4752 69.9097 25.7302 69.1617 25.7302 68.2398L25.7302 65.4383L22.1291 65.4383L22.1291 68.2398C22.1291 69.1617 21.385 69.9097 20.4659 69.9097C19.5476 69.9097 18.8026 69.1617 18.8026 68.2398L18.8026 65.4383L15.2023 65.4383L15.2023 68.2398C15.2023 69.1617 14.4573 69.9097 13.5391 69.9097C12.62 69.9097 11.8758 69.1617 11.8758 68.2398L11.8758 65.4383L4.13735 65.4383C3.69035 65.4383 3.32651 65.8036 3.32651 66.2524L3.32651 84.6337C3.32651 85.0825 3.69035 85.4478 4.13735 85.4478L71.7955 85.4478C72.7138 85.4478 73.4588 86.1958 73.4588 87.1177C73.4588 88.0397 72.7138 88.7877 71.7955 88.7877L48.6633 88.7877L48.6633 99.1751C51.4527 99.8135 53.6522 102.022 54.2889 104.822L92.3367 104.822C93.255 104.822 94 105.57 94 106.492C94 107.415 93.255 108.162 92.3367 108.162L54.2889 108.162C53.53 111.5 50.5509 114 47 114C43.4491 114 40.47 111.5 39.7111 108.162L1.66326 108.162C0.745 108.162 0 107.415 0 106.492C0 105.57 0.745 104.822 1.66326 104.822L39.712 104.822C40.3478 102.022 42.5473 99.8135 45.3367 99.1751L45.3367 88.7877L4.13735 88.7877C1.85557 88.7877 0 86.9247 0 84.6337L0 66.2524C0 63.9624 1.85557 62.0985 4.13735 62.0985L45.3367 62.0985L45.3367 57.7384L23.788 57.7384C22.8689 57.7384 22.1248 56.9913 22.1248 56.0685C22.1248 55.1466 22.8689 54.3986 23.788 54.3986L89.8626 54.3986C90.3096 54.3986 90.6735 54.0333 90.6735 53.5845L90.6735 35.2032C90.6735 34.7544 90.3096 34.3891 89.8626 34.3891L29.0568 34.3891L29.0568 37.1906C29.0568 38.1125 28.3118 38.8605 27.3935 38.8605C26.4752 38.8605 25.7302 38.1125 25.7302 37.1906L25.7302 34.3891L22.1291 34.3891L22.1291 37.1906C22.1291 38.1125 21.385 38.8605 20.4659 38.8605C19.5476 38.8605 18.8026 38.1125 18.8026 37.1906L18.8026 34.3891L15.2023 34.3891L15.2023 37.1906C15.2023 38.1134 14.4573 38.8605 13.5391 38.8605C12.62 38.8605 11.8758 38.1134 11.8758 37.1906L11.8758 34.3891L4.13735 34.3891C3.69035 34.3891 3.32651 34.7544 3.32651 35.2032L3.32651 53.5845C3.32651 54.0341 3.69035 54.3986 4.13735 54.3986L16.5451 54.3986C17.4633 54.3986 18.2083 55.1466 18.2083 56.0685C18.2083 56.9913 17.4633 57.7384 16.5451 57.7384L4.13735 57.7384C1.85557 57.7384 0 55.8754 0 53.5845L0 35.2032C0 32.9131 1.85557 31.0492 4.13735 31.0492L45.3367 31.0492L45.3367 26.6892L4.13735 26.6892C1.85557 26.6892 0 24.8253 0 22.5352L0 4.15393C0 1.86301 1.85644 0 4.13735 0L32.9559 0C33.8741 0 34.6191 0.747986 34.6191 1.66992C34.6191 2.59186 33.8741 3.33984 32.9559 3.33984L29.0568 3.33984L29.0568 6.14131C29.0568 7.06325 28.3118 7.81123 27.3935 7.81123C26.4752 7.81123 25.7302 7.06325 25.7302 6.14131L25.7302 3.33984L22.1291 3.33984L22.1291 6.14131C22.1291 7.06325 21.385 7.81123 20.4659 7.81123C19.5476 7.81123 18.8026 7.06325 18.8026 6.14131L18.8026 3.33984L15.2023 3.33984L15.2023 6.14131C15.2023 7.06325 14.4573 7.81123 13.5391 7.81123C12.62 7.81123 11.8758 7.06325 11.8758 6.14131L11.8758 3.33984L4.13735 3.33984C3.69035 3.33984 3.32651 3.70514 3.32651 4.15393L3.32651 22.5352C3.32651 22.984 3.69035 23.3493 4.13735 23.3493L89.8626 23.3493C90.3096 23.3493 90.6735 22.984 90.6735 22.5352L90.6735 4.15393C90.6735 3.70514 90.3096 3.33984 89.8626 3.33984L40.1988 3.33984C39.2797 3.33984 38.5356 2.59186 38.5356 1.66992C38.5356 0.747986 39.2797 0 40.1988 0L89.8626 0C92.1436 0 94 1.86301 94 4.15393L94 22.5352ZM47 110.66C49.2887 110.66 51.1512 108.79 51.1512 106.492C51.1512 104.195 49.2887 102.325 47 102.325C44.7113 102.325 42.8497 104.194 42.8497 106.492C42.8497 108.791 44.7113 110.66 47 110.66Z" id="Shape" fill="#3F546C" fill-rule="evenodd" stroke="none" />
    <path d="M45 8.69043C45 11.0663 43.1296 13 40.8295 13L4.17045 13C1.87042 13 0 11.0663 0 8.69043L0 4.30957C0 1.93281 1.87042 0 4.17045 0L40.8295 0C43.1296 0 45 1.93281 45 4.30957L45 8.69043ZM3.35313 4.30957L3.35313 8.69043C3.35313 9.15604 3.71987 9.53502 4.17045 9.53502L23.1925 9.53502L23.1925 3.46498L4.17045 3.46498C3.71987 3.46498 3.35313 3.84396 3.35313 4.30957ZM26.5456 3.46498L26.5456 9.53502L32.4197 9.53502L32.4197 3.46498L26.5456 3.46498ZM41.6469 4.30957L41.6469 8.69043C41.6469 9.15604 41.2801 9.53502 40.8296 9.53502L35.7728 9.53502L35.7728 3.46498L40.8296 3.46498C41.2801 3.46498 41.6469 3.84396 41.6469 4.30957Z" transform="translate(40 7)" id="Shape" fill="#3F546C" fill-rule="evenodd" stroke="none" />
    <path d="M0 1.54948C0 2.35029 0.671875 3 1.5 3C2.32891 3 3 2.35029 3 1.54948L3 1.45052C3 0.64971 2.32891 0 1.5 0C0.671875 0 0 0.64971 0 1.45052L0 1.54948Z" transform="translate(34 12)" id="Path" fill="#3F546C" stroke="none" />
  </g>
</svg>