<?xml version="1.0" encoding="utf-8"?>
<svg width="169px" height="41px" viewBox="0 0 169 41" version="1.1" xmlns:xlink="http://www.w3.org/1999/xlink" xmlns="http://www.w3.org/2000/svg">
  <desc>Created with Lunacy</desc>
  <defs>
    <linearGradient x1="0.020045327" y1="0.2327726" x2="1.18177271" y2="0.9104947" id="gradient_1">
      <stop offset="0" stop-color="#DF4C73" />
      <stop offset="1" stop-color="#814EBC" />
    </linearGradient>
    <path d="M11.136 39.616L11.136 27.328L14.528 27.328L19.904 35.968C20.288 36.608 20.6933 37.2053 21.12 37.76C21.5467 38.3147 22.016 38.784 22.528 39.168C23.04 39.552 23.6373 39.8507 24.32 40.064C25.0027 40.2773 25.8133 40.384 26.752 40.384C28.16 40.384 29.4293 39.9893 30.56 39.2C31.6907 38.4107 32.4693 37.2693 32.896 35.776C32.0427 34.2827 30.8693 32.6187 29.376 30.784C27.8827 28.9493 26.368 26.9867 24.832 24.896C26.7093 23.872 28.3307 22.4213 29.696 20.544C31.0613 18.6667 31.744 16.4053 31.744 13.76C31.744 9.53598 30.2507 6.18668 27.264 3.712C24.2773 1.23732 19.84 0 13.952 0C11.776 0 9.72801 0.117332 7.808 0.352C5.88799 0.586668 4.20267 0.959997 2.752 1.472C1.89866 1.77067 1.22667 2.16533 0.736 2.656C0.245331 3.14667 0 3.84 0 4.736L0 34.88C0 35.9893 0.127999 36.8853 0.384 37.568C0.640001 38.2507 1.01333 38.784 1.504 39.168C1.99467 39.552 2.61333 39.8187 3.36 39.968C4.10667 40.1173 4.97066 40.192 5.952 40.192C6.93334 40.192 7.92533 40.128 8.928 40C9.93067 39.872 10.6667 39.744 11.136 39.616ZM56.1445 8.512C54.2459 8.04266 52.1446 7.808 49.8405 7.808C48.3472 7.808 46.7579 7.91467 45.0725 8.128C43.3872 8.34133 41.9259 8.68266 40.6885 9.152C39.5792 9.62134 38.7579 10.1867 38.2246 10.848C37.6912 11.5093 37.4245 12.3947 37.4245 13.504C37.4245 14.3573 37.6166 15.1787 38.0005 15.968C38.3846 16.7573 38.8539 17.344 39.4086 17.728C40.6459 17.216 42.0325 16.7893 43.5686 16.448C45.1046 16.1067 46.6832 15.936 48.3046 15.936C50.3526 15.936 51.9205 16.2027 53.0085 16.736C54.0966 17.2693 54.6405 18.1547 54.6405 19.392L54.6405 19.84L46.2565 20.736C42.5872 21.12 39.8779 22.1013 38.1286 23.68C36.3792 25.2587 35.5046 27.52 35.5046 30.464C35.5046 32.2133 35.8565 33.7493 36.5606 35.072C37.2646 36.3947 38.2672 37.4827 39.5686 38.336C40.8699 39.1893 42.4272 39.8293 44.2406 40.256C46.0539 40.6827 48.0912 40.896 50.3525 40.896C55.3872 40.896 59.2912 40.064 62.0645 38.4C62.9179 37.888 63.6539 37.28 64.2725 36.576C64.8912 35.872 65.2005 34.9653 65.2005 33.856L65.2005 19.52C65.2005 17.5147 64.8379 15.776 64.1125 14.304C63.3872 12.832 62.3526 11.616 61.0085 10.656C59.6645 9.696 58.0432 8.98134 56.1445 8.512ZM112.882 39.84C115.036 40.544 117.372 40.896 119.89 40.896C121.383 40.896 122.983 40.768 124.69 40.512C126.396 40.256 127.932 39.7653 129.298 39.04C131.09 38.1013 131.986 36.672 131.986 34.752C131.986 33.8987 131.751 33.088 131.282 32.32C130.812 31.552 130.236 30.9547 129.554 30.528C128.572 31.1253 127.303 31.648 125.746 32.096C124.188 32.544 122.535 32.768 120.786 32.768C118.908 32.768 117.244 32.416 115.794 31.712C114.343 31.008 113.383 29.952 112.914 28.544L128.722 26.176C130.172 25.9627 131.303 25.472 132.114 24.704C132.924 23.936 133.33 22.8267 133.33 21.376C133.33 19.4133 132.956 17.6 132.21 15.936C131.463 14.272 130.418 12.8427 129.074 11.648C127.73 10.4533 126.13 9.51467 124.274 8.832C122.418 8.14933 120.359 7.808 118.098 7.808C116.092 7.808 114.13 8.11733 112.21 8.736C110.29 9.35467 108.583 10.3147 107.09 11.616C105.596 12.9173 104.391 14.5813 103.474 16.608C102.556 18.6347 102.098 21.056 102.098 23.872C102.098 26.7307 102.556 29.2267 103.474 31.36C104.391 33.4933 105.65 35.264 107.25 36.672C108.85 38.08 110.727 39.136 112.882 39.84ZM156.066 17.248C156.813 17.8667 157.186 18.8373 157.186 20.16L157.186 35.264C157.186 36.3307 157.325 37.1947 157.602 37.856C157.88 38.5173 158.274 39.04 158.786 39.424C159.298 39.808 159.928 40.064 160.674 40.192C161.421 40.32 162.264 40.384 163.202 40.384C164.184 40.384 165.133 40.32 166.05 40.192C166.968 40.064 167.64 39.936 168.066 39.808L168.066 19.776C168.066 16.0213 166.765 13.088 164.162 10.976C161.56 8.86399 157.848 7.808 153.026 7.808C150.338 7.808 147.896 8.128 145.698 8.768C143.501 9.408 141.677 10.24 140.226 11.264C139.373 11.8613 138.701 12.5227 138.21 13.248C137.72 13.9733 137.474 14.912 137.474 16.064L137.474 35.264C137.474 36.3307 137.613 37.1947 137.89 37.856C138.168 38.5173 138.562 39.04 139.074 39.424C139.586 39.808 140.216 40.064 140.962 40.192Q142.082 40.384 143.49 40.384C144.472 40.384 145.421 40.32 146.338 40.192C147.256 40.064 147.928 39.936 148.354 39.808L148.354 17.6C148.952 17.1733 149.666 16.8533 150.498 16.64C151.33 16.4267 152.173 16.32 153.026 16.32C154.306 16.32 155.32 16.6293 156.066 17.248ZM90.7851 39.04C90.1878 39.5093 89.3131 39.8933 88.1611 40.192C87.0091 40.4907 85.7078 40.64 84.2571 40.64C82.5931 40.64 81.1531 40.4267 79.9371 40C78.7211 39.5733 77.8784 38.8907 77.4091 37.952C77.0251 37.2267 76.5664 36.2133 76.0331 34.912C75.4998 33.6107 74.9344 32.16 74.3371 30.56C73.7398 28.96 73.1211 27.2427 72.4811 25.408C71.8411 23.5733 71.2331 21.76 70.6571 19.968C70.0811 18.176 69.5584 16.448 69.0891 14.784C68.6198 13.12 68.2358 11.648 67.9371 10.368C68.5344 9.77066 69.3344 9.248 70.3371 8.8C71.3398 8.352 72.4384 8.128 73.6331 8.128C75.1264 8.128 76.3531 8.43733 77.3131 9.056C78.2731 9.67467 78.9878 10.8373 79.4571 12.544L81.9531 22.336C82.4224 24.256 82.8704 25.9947 83.2971 27.552C83.7238 29.1093 84.0438 30.3147 84.2571 31.168L84.5771 31.168C85.3878 28.0107 86.2411 24.512 87.1371 20.672C88.0331 16.832 88.8438 13.056 89.5691 9.344C90.2944 8.96 91.1158 8.66133 92.0331 8.448C92.9504 8.23467 93.8358 8.128 94.6891 8.128C96.1824 8.128 97.4411 8.448 98.4651 9.088C99.4891 9.728 100.001 10.8373 100.001 12.416C100.001 13.0987 99.8411 14.0907 99.5211 15.392C99.2011 16.6933 98.7958 18.1653 98.3051 19.808C97.8144 21.4507 97.2384 23.1893 96.5771 25.024C95.9158 26.8587 95.2438 28.6507 94.5611 30.4C93.8784 32.1493 93.2064 33.7813 92.5451 35.296C91.8838 36.8107 91.2971 38.0587 90.7851 39.04ZM19.008 17.568C18.0693 18.4 16.7893 18.816 15.168 18.816L11.072 18.816L11.072 9.216C11.5413 9.13067 11.968 9.06667 12.352 9.024C12.736 8.98133 13.248 8.96 13.888 8.96C16.1493 8.96 17.8027 9.376 18.848 10.208C19.8933 11.04 20.416 12.2667 20.416 13.888C20.416 15.5093 19.9467 16.736 19.008 17.568ZM118.098 15.744C117.074 15.744 116.188 15.9147 115.442 16.256C114.695 16.5973 114.087 17.0347 113.618 17.568C113.148 18.1013 112.796 18.6987 112.562 19.36C112.327 20.0213 112.188 20.6933 112.146 21.376L123.09 19.584C122.962 18.7307 122.492 17.8773 121.682 17.024C120.871 16.1707 119.676 15.744 118.098 15.744ZM50.3526 32.96C51.0779 32.96 51.8779 32.8853 52.7526 32.736C53.6272 32.5867 54.2779 32.384 54.7046 32.128L54.7046 27.008L50.0966 27.392C48.9019 27.4773 47.9206 27.7333 47.1526 28.16C46.3845 28.5867 46.0006 29.2267 46.0006 30.08C46.0006 30.9333 46.3312 31.6267 46.9926 32.16C47.6539 32.6933 48.7739 32.96 50.3526 32.96Z" id="path_1" />
  </defs>
  <g id="Raven">
    <use stroke="none" fill="#FFFFFF" xlink:href="#path_1" fill-rule="evenodd" />
    <use stroke="none" fill="url(#gradient_1)" xlink:href="#path_1" fill-rule="evenodd" />
  </g>
</svg>