<?xml version="1.0" encoding="utf-8"?>
<svg width="16px" height="15px" viewBox="0 0 16 15" version="1.1" xmlns:xlink="http://www.w3.org/1999/xlink" xmlns="http://www.w3.org/2000/svg">
  <desc>Created with Lunacy</desc>
  <path d="M9.10137 0.928283L10.1287 2.97046C10.3768 3.46174 10.854 3.80193 11.4072 3.88098L13.705 4.20817C15.0965 4.40728 15.6527 6.08525 14.6453 7.0488L12.9827 8.63871C12.5826 9.02093 12.4005 9.57225 12.4946 10.1116L12.8867 12.3568C13.1248 13.7166 11.6693 14.7542 10.4248 14.1129L8.36911 13.0522C7.87494 12.7971 7.28473 12.7971 6.78956 13.0522L4.73483 14.1129C3.48939 14.7542 2.03488 13.7166 2.27196 12.3568L2.6651 10.1116C2.75914 9.57225 2.57707 9.02093 2.17693 8.63871L0.514344 7.0488C-0.493011 6.08525 0.0631852 4.40728 1.45468 4.20817L3.75249 3.88098C4.30468 3.80193 4.78285 3.46174 5.02994 2.97046L6.0573 0.928283C6.68052 -0.309428 8.47915 -0.309428 9.10137 0.928283Z" id="Fill-32" fill="#EA4972" stroke="none" />
</svg>