<?xml version="1.0" encoding="utf-8"?>
<svg width="16px" height="15px" viewBox="0 0 16 15" version="1.1" xmlns:xlink="http://www.w3.org/1999/xlink" xmlns="http://www.w3.org/2000/svg">
  <desc>Created with Lunacy</desc>
  <path d="M9.10562 0.928283L10.126 2.97046C10.3761 3.46174 10.8562 3.80193 11.4064 3.88098L13.7072 4.20817C15.0977 4.40728 15.6479 6.08525 14.6476 7.0488L12.987 8.63871C12.5868 9.02093 12.3968 9.57225 12.4968 10.1116L12.8869 12.3568C13.127 13.7166 11.6665 14.7542 10.4261 14.1129L8.36535 13.0522C7.87518 12.7971 7.28497 12.7971 6.7898 13.0522L4.73507 14.1129C3.48963 14.7542 2.03412 13.7166 2.2722 12.3568L2.66434 10.1116C2.75938 9.57225 2.57631 9.02093 2.17617 8.63871L0.514584 7.0488C-0.492771 6.08525 0.0624247 4.40728 1.45492 4.20817L3.75273 3.88098C4.30492 3.80193 4.78309 3.46174 5.03018 2.97046L6.05754 0.928283C6.68076 -0.309428 8.47539 -0.309428 9.10562 0.928283Z" id="Fill-33" fill="#D8D8D8" stroke="none" />
</svg>