<?xml version="1.0" encoding="utf-8"?>
<svg width="43px" height="29px" viewBox="0 0 43 29" version="1.1" xmlns:xlink="http://www.w3.org/1999/xlink" xmlns="http://www.w3.org/2000/svg">
  <desc>Created with Lunacy</desc>
  <g id="united-kingdom-2">
    <path d="M42.2585 28.0179L0.741413 28.0179C0.33199 28.0179 0 27.6877 0 27.2805L0 0.737345C0 0.330168 0.33199 0 0.741413 0L42.2586 0C42.668 0 43 0.330168 43 0.737345L43 27.2805C42.9999 27.6877 42.6679 28.0179 42.2585 28.0179Z" id="Path" fill="#41479B" stroke="none" />
    <path d="M42.9998 0.737345C42.9998 0.330168 42.6678 0 42.2584 0L38.9415 0L25.2067 8.94929L25.2067 0L17.7929 0L17.7929 8.94929L4.05828 0L0.741411 0C0.331989 0 0 0.330168 0 0.737345L0 2.64427L11.7837 10.3223L0 10.3223L0 17.6955L11.7837 17.6955L0 25.3736L0 27.2805C0 27.6877 0.331989 28.0179 0.741411 28.0179L4.05836 28.0179L17.7931 19.0686L17.7931 28.0179L25.2069 28.0179L25.2069 19.0686L38.9416 28.0179L42.2586 28.0179C42.668 28.0179 43 27.6877 43 27.2805L43 25.3736L31.2163 17.6955L42.9998 17.6955L42.9998 10.3224L31.2161 10.3224L42.9998 2.64427L42.9998 0.737345Z" id="Path" fill="#F5F5F5" stroke="none" />
    <g id="Group">
      <path d="M42.9162 11.7777L23.6779 11.7777L23.6779 0L19.2383 0L19.2383 11.7777L0 11.7777L0 16.1942L19.2383 16.1942L19.2383 27.9719L23.6779 27.9719L23.6779 16.1942L42.9162 16.1942L42.9162 11.7777Z" transform="translate(0 0.02301468)" id="Path" fill="#FF4B55" stroke="none" />
      <path d="M14.9786 0L0 9.67259C0.0523879 10.0281 0.347018 10.3055 0.71893 10.3055L1.73811 10.3055L17.6967 8.33865e-05L14.9786 8.33865e-05L14.9786 0Z" transform="translate(0.02095517 17.68945)" id="Path" fill="#FF4B55" stroke="none" />
      <path d="M2.71814 0L0 0L15.9354 10.2902C16.3068 10.2509 16.5999 9.94918 16.5999 9.56927L16.5999 8.96405L2.71814 0Z" transform="translate(26.31634 17.68945)" id="Path" fill="#FF4B55" stroke="none" />
      <path d="M0 1.47694L13.5604 10.2337L16.2786 10.2337L0.43109 0C0.177951 0.116991 0 0.368402 0 0.66434L0 1.47694Z" transform="translate(0 0.09481046)" id="Path" fill="#FF4B55" stroke="none" />
      <path d="M2.71814 10.3054L17.7327 0.609472C17.6703 0.265753 17.382 0 17.0184 0L15.9584 0L0 10.3054L2.71814 10.3054Z" transform="translate(25.15777 0.02309806)" id="Path" fill="#FF4B55" stroke="none" />
    </g>
  </g>
</svg>