<?xml version="1.0" encoding="utf-8"?>
<svg width="19px" height="18px" viewBox="0 0 19 18" version="1.1" xmlns:xlink="http://www.w3.org/1999/xlink" xmlns="http://www.w3.org/2000/svg">
  <desc>Created with Lunacy</desc>
  <g id="united-kingdom">
    <path d="M9.5 18C14.7467 18 19 13.9706 19 9C19 4.02944 14.7467 0 9.5 0C4.25329 0 0 4.02944 0 9C0 13.9706 4.25329 18 9.5 18Z" id="Oval" fill="#F0F0F0" stroke="none" />
    <g id="Group">
      <path d="M1.68935 0C0.919048 0.949464 0.338208 2.0438 0 3.23263L5.10158 3.23263L1.68935 0Z" transform="translate(0.03137298 3.343863)" id="Path" fill="#0052B4" stroke="none" />
      <path d="M5.1015 3.2326C4.76329 2.0438 4.18241 0.949464 3.41215 0L0 3.2326L5.1015 3.2326Z" transform="translate(13.86713 3.343899)" id="Path" fill="#0052B4" stroke="none" />
      <path d="M0 0C0.338246 1.1888 0.919087 2.28313 1.68935 3.23256L5.10146 0L0 0L0 0Z" transform="translate(0.03137298 11.42361)" id="Path" fill="#0052B4" stroke="none" />
      <path d="M3.41219 1.60048C2.40997 0.870714 1.25488 0.320444 0 0L0 4.83304L3.41219 1.60048Z" transform="translate(12.05818 0.02972177)" id="Path" fill="#0052B4" stroke="none" />
      <path d="M0 3.23252C1.00221 3.96229 2.15734 4.51256 3.41219 4.833L3.41219 0L0 3.23252Z" transform="translate(3.529633 13.13728)" id="Path" fill="#0052B4" stroke="none" />
      <path d="M3.41215 0C2.1573 0.320444 1.00217 0.870714 0 1.60044L3.41215 4.833L3.41215 0Z" transform="translate(3.529633 0.02972177)" id="Path" fill="#0052B4" stroke="none" />
      <path d="M0 4.833C1.25484 4.51256 2.40997 3.96229 3.41215 3.23256L0 0L0 4.833Z" transform="translate(12.05822 13.13728)" id="Path" fill="#0052B4" stroke="none" />
      <path d="M0 0L3.41215 3.2326C4.18241 2.28317 4.76329 1.1888 5.1015 0L0 0Z" transform="translate(13.86713 11.42361)" id="Path" fill="#0052B4" stroke="none" />
    </g>
    <g id="Group">
      <path d="M18.9196 7.8261L10.7392 7.8261L10.7392 7.8261L10.7392 0.0761836C10.3335 0.0261563 9.91997 0 9.5 0C9.07996 0 8.66649 0.0261563 8.26088 0.0761836L8.26088 7.82603L8.26088 7.82606L0.080416 7.82606C0.0276094 8.21036 0 8.60214 0 9C0 9.39793 0.0276094 9.78964 0.080416 10.1739L8.26081 10.1739L8.26084 10.1739L8.26084 17.9238C8.66649 17.9738 9.07996 18 9.5 18C9.91997 18 10.3335 17.9739 10.7391 17.9238L10.7391 10.174L10.7391 10.1739L18.9196 10.1739C18.9724 9.78964 19 9.39793 19 9C19 8.60214 18.9724 8.21036 18.9196 7.8261Z" id="Path" fill="#D80027" stroke="none" />
      <path d="M0 3.51563e-05L0 3.51563e-05L4.23923 4.01614C4.4342 3.8315 4.62019 3.63846 4.79765 3.43835L1.16828 0L0 0L0 3.51563e-05Z" transform="translate(11.97828 11.34784)" id="Path" fill="#D80027" stroke="none" />
      <path d="M4.23926 0L4.23919 0L0 4.01607C0.194898 4.20079 0.398666 4.37699 0.609893 4.54511L4.23926 1.10668L4.23926 0Z" transform="translate(2.782461 11.34787)" id="Path" fill="#D80027" stroke="none" />
      <path d="M4.79765 4.01621L4.79765 4.01614L0.558422 0C0.363449 0.184641 0.177457 0.377684 0 0.577793L3.62941 4.01618L4.79765 4.01618L4.79765 4.01621Z" transform="translate(2.224076 2.636016)" id="Path" fill="#D80027" stroke="none" />
      <path d="M2.10942e-15 4.54518L2.10942e-15 4.54518L4.23926 0.528996C4.04436 0.344285 3.8406 0.168082 3.62937 0L0 3.43839L0 4.54518L2.10942e-15 4.54518Z" transform="translate(11.97828 2.107055)" id="Path" fill="#D80027" stroke="none" />
    </g>
  </g>
</svg>