<?xml version="1.0" encoding="utf-8"?>
<svg width="135px" height="133px" viewBox="0 0 135 133" version="1.1" xmlns:xlink="http://www.w3.org/1999/xlink" xmlns="http://www.w3.org/2000/svg">
  <desc>Created with Lunacy</desc>
  <path d="M21.9629 0L38.9629 0C38.9629 0 44 12 43.9629 12C43.9258 12 51 12 55 12C59 12 65 25 57.4629 25C55.9629 25 9.96291 25 3.46291 25C-3.03708 25 0.462915 12 6.96291 12C6.96291 12 16.9629 12 16.9629 12L21.9629 0Z" transform="translate(43 107)" id="Path-2" fill="#EA4972" fill-opacity="0.349019617" stroke="none" />
  <path d="M3 0L106 0Q106.154 0 106.305 0.0139819Q106.457 0.0279637 106.604 0.0558134Q106.752 0.0836631 106.895 0.125154Q107.038 0.166644 107.175 0.221437Q107.312 0.276229 107.442 0.343877Q107.572 0.411525 107.693 0.491477Q107.815 0.571429 107.928 0.663032Q108.04 0.754635 108.143 0.857143Q108.245 0.959651 108.337 1.07223Q108.429 1.1848 108.509 1.30653Q108.588 1.42826 108.656 1.55814Q108.724 1.68802 108.779 1.825Q108.833 1.96199 108.875 2.10495Q108.916 2.24791 108.944 2.39569Q108.972 2.54347 108.986 2.69485Q109 2.84624 109 3L109 66Q109 66.1538 108.986 66.3052Q108.972 66.4565 108.944 66.6043Q108.916 66.7521 108.875 66.8951Q108.833 67.038 108.779 67.175Q108.724 67.312 108.656 67.4419Q108.588 67.5718 108.509 67.6935Q108.429 67.8152 108.337 67.9278Q108.245 68.0404 108.143 68.1429Q108.04 68.2454 107.928 68.337Q107.815 68.4286 107.693 68.5085Q107.572 68.5885 107.442 68.6561Q107.312 68.7238 107.175 68.7786Q107.038 68.8334 106.895 68.8748Q106.752 68.9163 106.604 68.9442Q106.457 68.972 106.305 68.986Q106.154 69 106 69L3 69Q2.84624 69 2.69485 68.986Q2.54347 68.972 2.39569 68.9442Q2.24791 68.9163 2.10495 68.8748Q1.96199 68.8334 1.825 68.7786Q1.68802 68.7238 1.55814 68.6561Q1.42826 68.5885 1.30653 68.5085Q1.1848 68.4286 1.07223 68.337Q0.959651 68.2454 0.857143 68.1429Q0.754635 68.0404 0.663032 67.9278Q0.571429 67.8152 0.491477 67.6935Q0.411525 67.5718 0.343877 67.4419Q0.276229 67.312 0.221437 67.175Q0.166644 67.038 0.125154 66.8951Q0.0836631 66.7521 0.0558134 66.6043Q0.0279637 66.4565 0.0139819 66.3052Q0 66.1538 0 66L0 3Q0 2.84624 0.0139819 2.69485Q0.0279637 2.54347 0.0558134 2.39569Q0.0836631 2.24791 0.125154 2.10495Q0.166644 1.96199 0.221437 1.825Q0.276229 1.68802 0.343877 1.55814Q0.411525 1.42826 0.491477 1.30653Q0.571429 1.1848 0.663032 1.07223Q0.754635 0.959651 0.857143 0.857143Q0.959651 0.754635 1.07223 0.663032Q1.1848 0.571429 1.30653 0.491477Q1.42826 0.411525 1.55814 0.343877Q1.68802 0.276229 1.825 0.221437Q1.96199 0.166644 2.10495 0.125154Q2.24791 0.0836631 2.39569 0.0558134Q2.54347 0.0279637 2.69485 0.0139819Q2.84624 0 3 0Z" transform="translate(26 0)" id="Rectangle" fill="#EA4972" fill-opacity="0.349019617" stroke="none" />
  <g id="web" transform="translate(0 10)">
    <g id="Group">
      <path d="M13.3152 1.88705C13.3152 0.830265 12.2822 0 11.4786 0C11.2874 0 11.0577 0.0379117 10.9047 0.150936L0.841781 6.64212C0.267861 7.01958 0 7.69891 0 8.18939C0 8.68011 0.267861 9.32153 0.841781 9.69899L10.9047 16.1902C11.0577 16.3034 11.2874 16.3411 11.4786 16.3411C12.2822 16.3411 13.3152 15.5485 13.3152 14.4917C13.3152 14.0012 13.0856 13.5861 12.7413 13.3973L4.70619 8.18939L12.7413 2.98151C13.0856 2.75499 13.3152 2.33986 13.3152 1.88705Z" transform="translate(34.74197 39.32433)" id="Path" fill="#FC245B" stroke="none" />
      <path d="M14.1955 0.679093L0.114832 28.4172C0.0384375 28.6058 0 28.7946 0 28.9832C0 29.6625 0.612117 30.3796 1.4921 30.3796C2.02782 30.3796 2.5251 30.1154 2.75477 29.6625L16.7972 2.03775C16.912 1.84914 16.9502 1.66029 16.9502 1.43401C16.9502 0.565832 16.1084 2.22947e-07 15.3433 2.22947e-07C14.846 -0.000236725 14.4251 0.188374 14.1955 0.679093Z" transform="translate(52.38142 28.90882)" id="Path" fill="#FC245B" stroke="none" />
      <path d="M0 14.4917C0 15.5485 0.99481 16.3411 1.83659 16.3411C2.02782 16.3411 2.21928 16.3032 2.37207 16.1902L12.4353 9.69899C13.0474 9.32153 13.277 8.68011 13.277 8.18939C13.277 7.69891 13.0092 7.01934 12.4353 6.64212L2.37231 0.150936C2.21928 0.0376747 2.02806 0 1.83683 0C0.995051 0 0.000240234 0.830265 0.000240234 1.88705C0.000240234 2.33986 0.229904 2.75499 0.535963 2.98151L8.60928 8.18939L0.535963 13.3973C0.229664 13.5859 0 14.001 0 14.4917Z" transform="translate(73.65586 39.32457)" id="Path" fill="#FC245B" stroke="none" />
      <path d="M116.558 0L6.44188 0C2.88978 0 0 2.85048 0 6.35375L0 86.8151C0 90.3186 2.88978 93.1688 6.44188 93.1688L49.2898 93.1688C47.9916 97.3313 46.1747 101.255 43.8709 104.869L40.1905 104.869C35.1641 104.869 31.0748 108.903 31.0748 113.86C31.0748 116.088 32.9126 117.901 35.1718 117.901L87.8282 117.901C90.0872 117.901 91.9252 116.089 91.9252 113.86C91.9252 108.903 87.8359 104.869 82.8095 104.869L79.1291 104.869C76.8253 101.255 75.0086 97.331 73.7102 93.1688L116.558 93.1688C120.11 93.1688 123 90.3186 123 86.8151L123 6.35375C123 2.85048 120.11 0 116.558 0ZM6.44188 3.55422L116.558 3.55422C118.123 3.55422 119.396 4.81004 119.396 6.35375L119.396 76.4126L3.60352 76.4126L3.60352 6.35375C3.60352 4.81028 4.87676 3.55422 6.44188 3.55422ZM6.44188 89.6148L116.558 89.6148C118.123 89.6148 119.396 88.3588 119.396 86.8153L119.396 79.967L3.60352 79.967L3.60352 86.8153C3.60352 88.359 4.87676 89.6148 6.44188 89.6148ZM74.9291 104.87L48.0709 104.87C50.184 101.216 51.8519 97.2967 53.0483 93.1691L69.9514 93.1691C71.1481 97.2967 72.816 101.216 74.9291 104.87ZM87.828 114.347C88.1002 114.347 88.3214 114.129 88.3214 113.861C88.3214 110.863 85.8487 108.424 82.8093 108.424L40.1905 108.424C37.151 108.424 34.6783 110.863 34.6783 113.861C34.6783 114.129 34.8998 114.347 35.1718 114.347L87.828 114.347Z" transform="translate(0 0.04928514)" id="Shape" fill="#3F546C" fill-rule="evenodd" stroke="none" />
      <path d="M1.80176 31.2167L107.746 31.2167C108.741 31.2167 109.547 30.421 109.547 29.4396L109.547 1.77711C109.547 0.795671 108.741 0 107.746 0C106.751 0 105.944 0.795671 105.944 1.77711L105.944 27.6625L3.60352 27.6625L3.60352 1.77711C3.60352 0.795671 2.79681 0 1.80176 0C0.806707 0 0 0.795671 0 1.77711L0 29.4396C-8.53484e-16 30.421 0.806707 31.2167 1.80176 31.2167Z" transform="translate(6.726322 41.6912)" id="Path" fill="#3F546C" stroke="none" />
      <path d="M3.60352 29.4396C3.60352 30.421 2.79681 31.2167 1.80176 31.2167C0.806707 31.2167 0 30.421 0 29.4396L0 1.77711C0 0.795671 0.806707 0 1.80176 0L107.746 0C108.741 0 109.547 0.795671 109.547 1.77711L109.547 29.4396C109.547 30.421 108.741 31.2167 107.746 31.2167C106.751 31.2167 105.944 30.421 105.944 29.4396L105.944 15.1839L3.60352 15.1839L3.60352 29.4396ZM105.944 11.6296L105.944 3.55422L3.60352 3.55422L3.60352 11.6296L105.944 11.6296Z" transform="translate(6.726322 6.920771)" id="Shape" fill="#3F546C" fill-rule="evenodd" stroke="none" />
    </g>
    <g id="Group" transform="translate(83 13)">
      <path d="M1.67176 3.72827C0.749913 3.72827 0 2.892 0 1.86427C0 0.836267 0.749913 0 1.67176 0C2.59361 0 3.34352 0.836267 3.34352 1.86427C3.34328 2.892 2.59337 3.72827 1.67176 3.72827Z" transform="translate(0.1346304 0.0688)" id="Path" fill="#FC245B" stroke="none" />
      <path d="M1.67176 3.72827C0.749913 3.72827 0 2.892 0 1.86427C0 0.836267 0.749913 0 1.67176 0C2.59361 0 3.34352 0.836267 3.34352 1.86427C3.34352 2.892 2.59361 3.72827 1.67176 3.72827Z" transform="translate(9.295 0.0688)" id="Path" fill="#FC245B" stroke="none" />
      <path d="M1.67176 3.72827C0.749913 3.72827 0 2.892 0 1.86427C0 0.836267 0.749913 0 1.67176 0C2.59337 0 3.34328 0.836267 3.34328 1.86427C3.34352 2.892 2.59361 3.72827 1.67176 3.72827Z" transform="translate(18.45537 0.0688)" id="Path" fill="#FC245B" stroke="none" />
    </g>
  </g>
</svg>